<?xml version="1.0" encoding="UTF-8"?>
<svg id="Layer_1" xmlns="http://www.w3.org/2000/svg" version="1.1" viewBox="0 0 20 20">
  <!-- Generator: Adobe Illustrator 29.8.3, SVG Export Plug-In . SVG Version: 2.1.1 Build 3)  -->
  <defs>
    <style>
      .st0 {
        fill: #144372;
      }
    </style>
  </defs>
  <path class="st0" d="M.16,4.35v11.3c0,.63.51,1.14,1.14,1.14h17.41c.63,0,1.14-.51,1.14-1.14V4.35c0-.63-.51-1.14-1.14-1.14H1.29c-.63,0-1.14.51-1.14,1.14ZM17.6,4.44l-7.29,5.84c-.18.15-.44.15-.62,0L2.4,4.44c-.08-.06-.03-.19.07-.19h15.07c.1,0,.15.13.07.19ZM18.7,15.75H1.3c-.06,0-.11-.05-.11-.11V5.04c0-.09.1-.14.18-.08l7.87,6.31.44.36c.18.15.44.15.62,0l.44-.36,7.87-6.31c.07-.06.18,0,.18.08v10.6c0,.06-.05.11-.11.11Z"/>
</svg>