<?xml version="1.0" encoding="UTF-8"?>
<svg id="Layer_1" xmlns="http://www.w3.org/2000/svg" version="1.1" viewBox="0 0 20 20">
  <!-- Generator: Adobe Illustrator 29.8.3, SVG Export Plug-In . SVG Version: 2.1.1 Build 3)  -->
  <defs>
    <style>
      .st0 {
        fill: none;
      }

      .st1 {
        fill: #144372;
      }
    </style>
  </defs>
  <path class="st0" d="M10,4.66c-1.18,0-2.14.96-2.14,2.14s.96,2.14,2.14,2.14,2.14-.96,2.14-2.14-.96-2.14-2.14-2.14Z"/>
  <path class="st0" d="M13.88,3.34s-.02-.02-.03-.03c-.94-1.19-2.34-1.88-3.86-1.88s-2.92.68-3.86,1.88h0s-.01.02-.02.03h0c-1.15,1.5-1.54,3.4-1.07,5.23l.11.43c.18.67,2.88,5.26,4.84,8.49,1.96-3.24,4.67-7.82,4.84-8.49l.11-.43c.48-1.83.09-3.73-1.07-5.22h0ZM10,10.14c-1.84,0-3.34-1.5-3.34-3.34s1.5-3.34,3.34-3.34,3.34,1.5,3.34,3.34-1.5,3.34-3.34,3.34Z"/>
  <path class="st1" d="M10,3.46c-1.84,0-3.34,1.5-3.34,3.34s1.5,3.34,3.34,3.34,3.34-1.5,3.34-3.34-1.5-3.34-3.34-3.34ZM10,8.94c-1.18,0-2.14-.96-2.14-2.14s.96-2.14,2.14-2.14,2.14.96,2.14,2.14-.96,2.14-2.14,2.14Z"/>
  <path class="st1" d="M10,19.77l1.05-1.7c1.45-2.38,4.7-7.81,4.95-8.78l.11-.43c.57-2.19.1-4.47-1.28-6.26-.01-.02-.02-.03-.04-.05C13.63,1.08,11.89.23,10,.23s-3.64.85-4.8,2.33h0s-.02.03-.04.05c-1.38,1.79-1.85,4.07-1.28,6.26l.11.43c.25.97,3.51,6.39,4.96,8.78M14.95,8.56l-.11.43c-.18.67-2.88,5.26-4.84,8.49-1.97-3.24-4.67-7.82-4.84-8.49l-.11-.43c-.48-1.83-.09-3.73,1.07-5.22h0s.01-.02.02-.03h0c.94-1.2,2.34-1.88,3.86-1.88s2.92.68,3.86,1.88c0,.01.02.02.03.03h0c1.15,1.5,1.54,3.4,1.07,5.22Z"/>
</svg>