<?xml version="1.0" encoding="UTF-8"?>
<svg id="Layer_1" xmlns="http://www.w3.org/2000/svg" version="1.1" viewBox="0 0 200 200">
  <!-- Generator: Adobe Illustrator 29.8.3, SVG Export Plug-In . SVG Version: 2.1.1 Build 3)  -->
  <defs>
    <style>
      .st0 {
        fill: none;
        stroke: #bcbec0;
        stroke-miterlimit: 10;
        stroke-width: .5px;
      }

      .st1 {
        fill: #ea4335;
      }

      .st2 {
        fill: #5f6368;
      }

      .st3 {
        fill: #ffc43d;
      }

      .st4 {
        fill: #34a853;
      }

      .st5 {
        fill: #fbbc04;
      }

      .st6 {
        fill: #ea4335;
      }

      .st7 {
        fill: #4285f4;
      }

      .st8 {
        fill: #144372;
      }
    </style>
  </defs>
  <g>
    <g>
      <g>
        <path class="st3" d="M33.2,60.31c.56,1.68,1.41,4.22,3.86,4.75.25.05.5.08.75.08,1.16,0,2.26-.6,3.16-1.73.28-.35.52-.72.74-1.1.23-.72.55-1.38.81-1.95.1-.2.19-.41.29-.62.23-.71.43-1.43.62-2.14.12-.45.25-.9.38-1.33l5.1-17.1c-.66-.22-1.33-.43-2.01-.61l-5.1,17.11c-.13.45-.26.91-.39,1.38-.49,1.81-1.01,3.68-2.09,5.06-.87,1.11-1.58.95-1.82.9-1.19-.26-1.76-1.68-2.32-3.37-1.95-5.84-4.59-15-6.33-21.14-.68.18-1.35.38-2.01.6,1.74,6.16,4.4,15.34,6.35,21.2Z"/>
        <path class="st3" d="M25.47,74.57c-5.84,1.95-15,4.6-21.14,6.33.18.68.38,1.35.6,2.01,6.16-1.74,15.34-4.4,21.2-6.35,1.68-.56,4.22-1.41,4.75-3.86.31-1.44-.27-2.83-1.65-3.91-.35-.28-.72-.52-1.1-.74-.71-.23-1.38-.54-1.94-.81-.2-.1-.41-.19-.62-.29-.71-.23-1.43-.43-2.14-.63-.45-.12-.9-.25-1.33-.37l-17.1-5.1c-.22.66-.43,1.33-.61,2.01l17.11,5.1c.45.13.91.26,1.38.39,1.81.49,3.68,1.01,5.06,2.09,1.1.87.95,1.58.9,1.82-.26,1.19-1.68,1.76-3.37,2.32Z"/>
        <path class="st3" d="M28.13,68.04c.62.2,1.27.35,1.94.35.75,0,1.51-.18,2.23-.67,1.22-.82,1.75-2.23,1.51-3.97-.31-2.16-1.42-4.01-2.5-5.8-.24-.4-.48-.8-.71-1.19l-8.84-15.49c-.62.32-1.23.67-1.83,1.03l8.85,15.5c.23.41.48.82.73,1.23.97,1.61,1.97,3.27,2.22,5.01.2,1.39-.41,1.8-.6,1.94-1.01.68-2.43.11-4.04-.65-5.56-2.62-14.02-7.03-19.66-10.02-.34.61-.65,1.23-.95,1.87,5.45,2.88,13.52,7.09,19.1,9.75.21.1.42.2.62.29.56.27,1.23.58,1.94.81Z"/>
        <path class="st3" d="M41.71,62.32c-.43,1.32-.59,2.81.32,4.16.69,1.02,1.8,1.57,3.16,1.57.26,0,.53-.02.8-.06,2.16-.31,4.01-1.42,5.8-2.5.4-.24.8-.48,1.19-.71l15.49-8.84c-.32-.62-.67-1.23-1.03-1.83l-15.5,8.85c-.41.23-.82.48-1.23.73-1.61.97-3.27,1.97-5.01,2.22-1.4.2-1.8-.41-1.93-.6-.68-1.01-.11-2.43.65-4.04,2.62-5.56,7.03-14.02,10.02-19.66-.61-.34-1.23-.65-1.87-.95-2.88,5.45-7.09,13.52-9.75,19.1-.1.21-.2.42-.29.62-.27.56-.58,1.23-.81,1.95Z"/>
        <path class="st8" d="M42.38,83.63c-.56-1.68-1.41-4.22-3.86-4.75-1.43-.31-2.82.27-3.91,1.65-.28.35-.52.72-.74,1.1-.23.72-.55,1.38-.81,1.95-.1.2-.19.41-.29.62-.23.71-.43,1.43-.62,2.14-.12.45-.25.9-.37,1.34l-5.1,17.1c.66.22,1.33.43,2.01.61l5.1-17.11c.13-.45.26-.91.39-1.38.49-1.81,1-3.68,2.09-5.06.87-1.11,1.58-.95,1.82-.9,1.19.26,1.76,1.68,2.32,3.37,1.95,5.84,4.6,15,6.33,21.14.68-.18,1.35-.38,2.01-.6-1.74-6.16-4.4-15.34-6.35-21.2Z"/>
        <path class="st8" d="M50.11,69.37c5.84-1.95,15-4.6,21.14-6.33-.18-.68-.38-1.35-.6-2.01-6.16,1.74-15.34,4.4-21.2,6.35-1.68.56-4.22,1.41-4.75,3.86-.31,1.44.27,2.82,1.65,3.91.35.28.72.52,1.1.74.72.23,1.38.55,1.95.81.2.09.41.19.62.29.71.23,1.43.43,2.15.63.45.12.9.25,1.33.38l17.1,5.1c.22-.66.43-1.33.61-2.01l-17.11-5.1c-.45-.13-.91-.26-1.38-.39-1.81-.49-3.68-1.01-5.06-2.09-1.1-.87-.95-1.58-.9-1.82.26-1.19,1.68-1.76,3.37-2.32Z"/>
        <path class="st8" d="M47.44,75.89c-1.32-.43-2.81-.59-4.16.32-1.22.82-1.75,2.23-1.51,3.97.31,2.16,1.42,4.01,2.5,5.8.24.4.48.8.71,1.19l8.84,15.49c.62-.32,1.23-.67,1.83-1.03l-8.85-15.5c-.23-.41-.48-.82-.73-1.24-.97-1.61-1.97-3.27-2.22-5.01-.2-1.39.41-1.8.6-1.93,1.01-.68,2.43-.11,4.04.65,5.56,2.62,14.02,7.03,19.66,10.02.34-.61.65-1.23.95-1.87-5.45-2.88-13.52-7.09-19.1-9.75-.21-.1-.41-.2-.62-.29-.56-.27-1.23-.58-1.95-.81Z"/>
        <path class="st8" d="M33.87,81.62c.43-1.32.59-2.81-.32-4.16-.82-1.22-2.23-1.75-3.97-1.51-2.16.31-4.01,1.42-5.8,2.5-.4.24-.8.48-1.19.71l-15.49,8.84c.32.62.67,1.23,1.03,1.83l15.5-8.85c.41-.23.82-.48,1.24-.73,1.61-.97,3.27-1.97,5.01-2.22,1.39-.2,1.8.41,1.94.6.68,1.01.11,2.43-.65,4.04-2.62,5.56-7.03,14.02-10.02,19.66.61.34,1.23.65,1.87.95,2.88-5.45,7.09-13.52,9.75-19.09.1-.21.2-.42.29-.62.27-.56.58-1.23.81-1.95Z"/>
      </g>
      <g>
        <path class="st3" d="M85.68,64.37h8c8.79,0,13.65,4.72,13.65,12.11s-4.91,12.11-13.65,12.11h-3.04v7.58h-4.96v-31.8ZM93.49,84.24c6.27,0,8.79-2.95,8.79-7.76s-2.57-7.76-8.79-7.76h-2.85v15.52h2.85Z"/>
        <path class="st3" d="M130.71,96.17h-5.71l-5.71-8.37c-.89.09-1.78.19-2.67.19h-2.99v8.18h-4.96v-31.8h7.95c8.79,0,13.7,4.58,13.7,11.88,0,4.91-2.2,8.28-6.36,10.1l6.73,9.82ZM116.45,83.73c6.31,0,8.84-2.76,8.84-7.48s-2.62-7.53-8.84-7.53h-2.81v15.01h2.81Z"/>
        <path class="st3" d="M132.49,64.37h4.91v31.8h-4.91v-31.8Z"/>
        <path class="st3" d="M140.53,64.04h.51l15.2,17.77,15.06-17.77h.51v32.13h-4.72v-16.51c0-1.78.19-4.58.19-4.58,0,0-1.54,2.38-2.85,3.83l-8,9.63h-.56l-8-9.63c-1.22-1.45-2.81-3.83-2.81-3.83,0,0,.19,2.81.19,4.58v16.51h-4.72v-32.13Z"/>
        <path class="st3" d="M174.81,64.37h20.2v4.35h-15.24v12.35h13.51v4.26h-13.51v6.5h15.9v4.35h-20.86v-31.8Z"/>
      </g>
      <g>
        <path class="st8" d="M85.78,55.32c0-1.88.66-2.56,2.45-2.56.39,0,.92.04,1.38.16.3.07.39.29.34.59-.05.29-.23.46-.52.46-.34,0-.67-.01-.95-.01-.88,0-1.17.3-1.17,1.37s.29,1.38,1.17,1.38c.22,0,.61,0,1.02-.04.31-.03.48.11.54.42.06.34-.06.53-.34.61-.46.12-.98.18-1.48.18-1.79,0-2.44-.68-2.44-2.56Z"/>
        <path class="st8" d="M90.95,56.54v-3.17c0-.31.17-.48.48-.48h.5c.31,0,.48.17.48.48v2.72c0,.45.12.58.47.58s.67-.06,1.14-.26c.09-.02.13-.08.13-.16v-2.87c0-.31.17-.48.48-.48h.5c.31,0,.48.17.48.48v3.91c0,.31-.17.48-.48.48h-.28c-.26,0-.41-.08-.47-.26v-.05c-.05-.09-.11-.11-.21-.05-.6.34-1.23.47-1.85.47-.89,0-1.37-.46-1.37-1.33Z"/>
        <path class="st8" d="M96.78,57.3v-3.94c0-.3.16-.46.46-.46h.25c.24,0,.39.07.45.25l.02.05c.04.11.12.14.22.08.52-.3.99-.44,1.58-.49.32-.03.48.16.44.47l-.04.41c-.03.29-.18.41-.44.44-.22.02-.77.08-1.34.19-.1.02-.15.09-.15.18v2.81c0,.3-.16.46-.46.46h-.54c-.3,0-.46-.16-.46-.46Z"/>
        <path class="st8" d="M101.26,57.76c-.31-.04-.43-.22-.4-.54.03-.33.18-.46.48-.46.38,0,.82.01,1.25.01,1,0,1.23-.04,1.23-.37,0-.29-.21-.35-.69-.46l-1.22-.3c-.9-.24-1.16-.72-1.16-1.5,0-.94.55-1.38,2.05-1.37.55,0,1.24.04,1.81.1.29.04.44.22.4.53-.04.34-.19.47-.5.47-.47-.01-.96-.02-1.44-.02-.74,0-.92.02-.92.32s.17.34.62.46l1.25.3c.82.21,1.2.58,1.2,1.43,0,1.13-.66,1.47-2.22,1.47-.31,0-.98,0-1.75-.09Z"/>
        <path class="st8" d="M105.95,55.33c0-1.81.66-2.57,2.48-2.57s2.47.76,2.47,2.57-.67,2.55-2.47,2.55-2.48-.75-2.48-2.55ZM109.37,55.33c0-1.12-.22-1.48-.95-1.48s-.95.36-.95,1.48.2,1.46.95,1.46.95-.36.95-1.46Z"/>
        <path class="st8" d="M116.33,57.88c-1.84,0-2.53-.75-2.53-2.54,0-1.92.72-2.57,2.48-2.57,1.65,0,2.3.58,2.3,1.69,0,.89-.36,1.35-1.29,1.35h-1.75c-.13,0-.17.05-.15.16.1.6.45.74,1.12.74.34,0,.86-.03,1.37-.08.31-.02.49.11.53.42.05.32-.05.51-.33.6-.53.16-1.21.22-1.75.22h0ZM116.76,54.94c.35,0,.4-.17.4-.51,0-.45-.21-.61-.83-.61-.77,0-.96.2-.99.94,0,.13.04.17.16.17h1.27Z"/>
        <path class="st8" d="M121.46,55.32c0-1.88.66-2.56,2.45-2.56.39,0,.92.04,1.38.16.3.07.39.29.34.59-.05.29-.23.46-.52.46-.34,0-.67-.01-.95-.01-.88,0-1.17.3-1.17,1.37s.29,1.38,1.17,1.38c.22,0,.61,0,1.02-.04.31-.03.48.11.54.42.06.34-.06.53-.34.61-.46.12-.98.18-1.48.18-1.79,0-2.44-.68-2.44-2.56Z"/>
        <path class="st8" d="M126.36,55.33c0-1.81.66-2.57,2.48-2.57s2.47.76,2.47,2.57-.67,2.55-2.47,2.55-2.48-.75-2.48-2.55ZM129.78,55.33c0-1.12-.22-1.48-.95-1.48s-.95.36-.95,1.48.2,1.46.95,1.46.95-.36.95-1.46Z"/>
        <path class="st8" d="M132.29,56.53v-5.2c0-.31.17-.48.48-.48h.5c.31,0,.48.17.48.48v4.83c0,.35.16.5.5.5h.07c.26,0,.44.11.46.44v.14c.03.29-.05.5-.34.55-.24.04-.57.07-.75.07-.84,0-1.38-.48-1.38-1.34Z"/>
        <path class="st8" d="M137.83,57.88c-1.84,0-2.53-.75-2.53-2.54,0-1.92.72-2.57,2.48-2.57,1.65,0,2.3.58,2.3,1.69,0,.89-.36,1.35-1.29,1.35h-1.75c-.13,0-.17.05-.15.16.1.6.45.74,1.12.74.34,0,.86-.03,1.37-.08.31-.02.49.11.53.42.05.32-.05.51-.33.6-.53.16-1.21.22-1.75.22h0ZM138.25,54.94c.35,0,.4-.17.4-.51,0-.45-.21-.6-.83-.61-.77,0-.96.2-.99.94,0,.13.04.17.16.17h1.27ZM137.73,52.28c-.21.1-.38.08-.51-.11l-.06-.08c-.14-.19-.09-.37.13-.51l1.32-1c.22-.15.41-.12.56.11l.21.3c.15.23.09.44-.15.55l-1.49.75h0Z"/>
        <path class="st8" d="M141.47,59.67c-.26-.06-.36-.25-.34-.58.02-.34.18-.5.47-.49.58,0,1.18.05,1.59,0,.72-.07.91-.42.96-.93.02-.07.03-.15.04-.21.02-.1-.02-.14-.13-.07-.42.19-.86.37-1.5.35-1.23-.04-1.75-.83-1.75-2.4,0-1.48.44-2.58,2.39-2.58.55,0,1.47.09,2.01.24.29.07.42.27.42.58v3.59c0,1.45-.46,2.56-2.31,2.61-.56.02-1.3-.01-1.84-.11ZM144.05,56.37c.09-.03.13-.09.13-.18v-2.1c0-.1-.04-.15-.16-.17-.27-.06-.57-.08-.79-.07-.71.02-.93.35-.93,1.53,0,.92.15,1.24.86,1.24.31,0,.56-.1.89-.24Z"/>
        <path class="st8" d="M146.78,51.44c0-.44.33-.75.8-.75s.79.32.79.75-.33.76-.79.76-.8-.32-.8-.76ZM146.85,57.28v-3.91c0-.31.17-.48.48-.48h.49c.31,0,.48.17.48.48v3.91c0,.31-.17.48-.48.48h-.49c-.31,0-.48-.17-.48-.48Z"/>
        <path class="st8" d="M149.32,55.33c0-1.81.66-2.57,2.48-2.57s2.47.76,2.47,2.57-.67,2.55-2.47,2.55-2.48-.75-2.48-2.55ZM152.74,55.33c0-1.12-.22-1.48-.95-1.48s-.95.36-.95,1.48.2,1.46.95,1.46.95-.36.95-1.46Z"/>
      </g>
    </g>
    <line class="st0" x1="4.34" y1="122.76" x2="195.66" y2="122.76"/>
  </g>
  <g>
    <path class="st2" d="M102.51,137.17h1.32l-2.63,9.87h-1.3l-2.12-6.5h-.06l-2.12,6.5h-1.3l-2.74-9.87h1.32l2.08,7.76h.06l2.14-6.43h1.18l2.14,6.43h.06l1.97-7.76ZM103.71,143.66c0-1.04.33-1.9.98-2.58.66-.68,1.49-1.02,2.49-1.02s1.83.34,2.48,1.02c.66.68.99,1.54.99,2.58s-.33,1.91-.99,2.58c-.65.68-1.48,1.02-2.48,1.02s-1.83-.34-2.49-1.02c-.65-.68-.98-1.54-.98-2.58ZM104.98,143.66c0,.73.21,1.31.63,1.76.42.45.95.68,1.57.68s1.15-.22,1.57-.68c.42-.45.63-1.04.63-1.76s-.21-1.3-.63-1.75c-.43-.46-.96-.69-1.57-.69s-1.14.23-1.57.69c-.42.45-.63,1.03-.63,1.75ZM112.82,147.04h-1.27v-6.75h1.21v1.1h.06c.13-.36.39-.66.79-.92.4-.25.79-.38,1.18-.38s.68.06.94.17l-.39,1.23c-.16-.06-.4-.1-.74-.1-.48,0-.89.19-1.25.58-.35.39-.53.84-.53,1.35v3.72ZM122.25,147.04h-1.53l-2.11-3.18-1.03,1.02v2.16h-1.27v-9.87h1.27v6.08l2.92-2.96h1.63v.06l-2.63,2.62,2.76,4.02v.06ZM127.74,145.17c0,.59-.26,1.08-.77,1.49-.51.4-1.16.61-1.94.61-.68,0-1.28-.18-1.79-.53-.51-.35-.88-.82-1.1-1.4l1.13-.48c.17.4.41.72.72.94.32.23.66.34,1.04.34.4,0,.74-.09,1.01-.26.27-.17.41-.38.41-.62,0-.43-.33-.75-.99-.95l-1.16-.29c-1.31-.33-1.97-.96-1.97-1.9,0-.62.25-1.11.75-1.48.5-.37,1.14-.56,1.92-.56.6,0,1.14.14,1.62.43.48.28.82.67,1.01,1.14l-1.13.47c-.13-.28-.34-.51-.63-.67-.29-.16-.61-.24-.97-.24-.33,0-.63.08-.89.25-.26.17-.39.37-.39.61,0,.39.36.66,1.09.83l1.02.26c1.34.33,2.01,1.01,2.01,2.03ZM132.14,147.26c-.5,0-.95-.11-1.36-.32-.41-.21-.72-.49-.94-.84h-.06l.06.94v2.98h-1.27v-9.73h1.21v.94h.06c.22-.35.54-.63.94-.84.41-.21.86-.32,1.36-.32.89,0,1.64.35,2.26,1.05.63.71.95,1.56.95,2.55s-.32,1.85-.95,2.55c-.62.7-1.37,1.05-2.26,1.05ZM131.93,146.1c.61,0,1.12-.23,1.53-.69.41-.45.62-1.03.62-1.75s-.21-1.29-.62-1.75c-.41-.46-.92-.69-1.53-.69s-1.13.23-1.54.69c-.4.46-.61,1.04-.61,1.75s.2,1.3.61,1.76c.41.45.93.68,1.54.68ZM138.82,140.07c.94,0,1.68.25,2.22.75.54.5.81,1.19.81,2.06v4.16h-1.21v-.94h-.06c-.52.77-1.22,1.16-2.09,1.16-.74,0-1.37-.22-1.87-.66-.5-.44-.75-.99-.75-1.65,0-.7.26-1.25.79-1.67.53-.41,1.23-.62,2.12-.62.75,0,1.37.14,1.86.41v-.29c0-.44-.17-.82-.52-1.12-.35-.31-.76-.46-1.23-.46-.71,0-1.27.3-1.68.9l-1.12-.7c.62-.88,1.52-1.32,2.73-1.32ZM137.18,144.97c0,.33.14.61.42.83.28.22.61.33.99.33.53,0,1.01-.2,1.43-.59.42-.39.63-.86.63-1.39-.4-.31-.95-.47-1.65-.47-.51,0-.94.12-1.29.37-.34.25-.52.56-.52.92ZM146.15,147.26c-1,0-1.83-.34-2.49-1.02-.65-.7-.98-1.56-.98-2.58s.33-1.9.98-2.58c.66-.68,1.49-1.02,2.49-1.02.69,0,1.29.17,1.81.52.51.34.9.82,1.16,1.43l-1.16.48c-.36-.85-.99-1.27-1.89-1.27-.58,0-1.08.23-1.5.7-.41.47-.62,1.05-.62,1.74s.21,1.27.62,1.74c.42.47.92.7,1.5.7.93,0,1.58-.42,1.96-1.27l1.13.48c-.25.61-.64,1.08-1.16,1.43-.53.34-1.14.52-1.84.52ZM152.98,147.26c-.99,0-1.81-.34-2.45-1.02-.64-.68-.96-1.54-.96-2.58s.31-1.89.94-2.57c.62-.68,1.42-1.03,2.4-1.03s1.8.32,2.39.97c.59.65.89,1.55.89,2.72v.14h-5.32c.02.66.24,1.19.66,1.6.42.4.93.61,1.52.61.81,0,1.44-.4,1.9-1.21l1.13.55c-.3.57-.72,1.02-1.26,1.34s-1.15.48-1.83.48ZM150.95,142.85h3.87c-.04-.47-.23-.86-.57-1.16-.34-.31-.81-.46-1.38-.46-.48,0-.89.15-1.23.44-.34.29-.57.69-.68,1.18Z"/>
    <path class="st7" d="M49.52,142.71v-1.53h5.11c.05.27.08.59.08.94,0,1.14-.31,2.56-1.32,3.57-.98,1.02-2.23,1.57-3.89,1.57-3.08,0-5.66-2.51-5.66-5.58s2.59-5.58,5.66-5.58c1.7,0,2.91.67,3.83,1.54l-1.08,1.08c-.65-.61-1.54-1.09-2.75-1.09-2.25,0-4,1.81-4,4.06s1.76,4.06,4,4.06c1.46,0,2.29-.59,2.82-1.12.43-.43.72-1.05.83-1.9h-3.62Z"/>
    <path class="st1" d="M62.49,143.66c0,2.07-1.62,3.6-3.61,3.6s-3.61-1.53-3.61-3.6,1.62-3.6,3.61-3.6,3.61,1.51,3.61,3.6ZM60.91,143.66c0-1.29-.94-2.18-2.03-2.18s-2.03.89-2.03,2.18.94,2.18,2.03,2.18,2.03-.9,2.03-2.18Z"/>
    <path class="st5" d="M70.36,143.66c0,2.07-1.62,3.6-3.61,3.6s-3.61-1.53-3.61-3.6,1.62-3.6,3.61-3.6,3.61,1.51,3.61,3.6ZM68.78,143.66c0-1.29-.94-2.18-2.03-2.18s-2.03.89-2.03,2.18.94,2.18,2.03,2.18,2.03-.9,2.03-2.18Z"/>
    <path class="st7" d="M77.91,140.28v6.46c0,2.66-1.57,3.75-3.42,3.75-1.74,0-2.79-1.17-3.19-2.12l1.38-.57c.25.59.84,1.28,1.81,1.28,1.18,0,1.92-.74,1.92-2.11v-.52h-.05c-.35.44-1.03.82-1.89.82-1.8,0-3.45-1.57-3.45-3.58s1.65-3.61,3.45-3.61c.86,0,1.54.38,1.89.8h.05v-.59h1.5ZM76.52,143.67c0-1.27-.84-2.19-1.92-2.19s-2,.93-2,2.19.91,2.17,2,2.17,1.92-.91,1.92-2.17Z"/>
    <path class="st4" d="M80.58,136.5v10.53h-1.58v-10.53h1.58Z"/>
    <path class="st6" d="M86.68,144.85l1.23.82c-.39.59-1.35,1.59-3,1.59-2.04,0-3.57-1.58-3.57-3.6,0-2.14,1.54-3.6,3.39-3.6s2.78,1.48,3.08,2.29l.16.41-4.81,1.99c.37.72.94,1.09,1.74,1.09s1.36-.39,1.77-.99ZM82.91,143.55l3.21-1.33c-.18-.45-.71-.76-1.33-.76-.8,0-1.92.71-1.88,2.1Z"/>
    <path class="st2" d="M47.89,151.29c.46,0,.84.08,1.13.23l-.34,1.12c-.22-.11-.47-.17-.74-.17-.31,0-.57.11-.76.32-.2.22-.3.5-.3.86v.86h1.76v1.16h-1.76v5.6h-1.27v-5.6h-1.27v-1.16h1.27v-.98c0-.67.21-1.21.64-1.63.43-.41.98-.62,1.65-.62ZM49.13,157.89c0-1.04.33-1.9.98-2.58.66-.68,1.49-1.02,2.49-1.02s1.83.34,2.48,1.02c.66.68.99,1.54.99,2.58s-.33,1.91-.99,2.58c-.65.68-1.48,1.02-2.48,1.02s-1.83-.34-2.49-1.02c-.65-.68-.98-1.54-.98-2.58ZM50.4,157.89c0,.73.21,1.31.63,1.76.42.45.95.68,1.57.68s1.15-.22,1.57-.68c.42-.45.63-1.04.63-1.76s-.21-1.3-.63-1.75c-.43-.46-.96-.69-1.57-.69s-1.14.23-1.57.69c-.42.45-.63,1.03-.63,1.75ZM58.42,161.27h-1.27v-6.75h1.21v1.1h.06c.13-.36.39-.66.79-.92.4-.25.79-.38,1.18-.38s.68.06.94.17l-.39,1.23c-.16-.06-.4-.1-.74-.1-.48,0-.89.19-1.25.58-.35.39-.53.84-.53,1.35v3.72ZM71.17,151.4v1.21h-4.49v3.13h4.05v1.19h-4.05v3.13h4.49v1.21h-5.76v-9.87h5.76ZM75.12,161.49c-.88,0-1.64-.35-2.27-1.05-.63-.71-.94-1.56-.94-2.55s.31-1.84.94-2.55c.63-.7,1.39-1.05,2.27-1.05.5,0,.95.11,1.36.32.41.21.72.49.94.84h.06l-.06-.94v-3.12h1.27v9.87h-1.21v-.94h-.06c-.22.35-.54.63-.94.84-.41.21-.86.32-1.36.32ZM75.33,160.33c.63,0,1.13-.22,1.53-.68.41-.45.62-1.04.62-1.76s-.21-1.29-.62-1.75c-.4-.46-.91-.69-1.53-.69s-1.12.23-1.53.69c-.41.46-.62,1.04-.62,1.75s.21,1.3.62,1.75c.41.46.92.69,1.53.69ZM86.09,161.27h-1.21v-.94h-.06c-.19.33-.49.61-.89.83-.4.22-.82.33-1.25.33-.83,0-1.46-.24-1.91-.71s-.67-1.15-.67-2.02v-4.25h1.27v4.16c.03,1.1.58,1.65,1.67,1.65.51,0,.93-.2,1.27-.61.34-.41.51-.9.51-1.47v-3.74h1.27v6.75ZM90.65,161.49c-1,0-1.83-.34-2.49-1.02-.65-.7-.98-1.56-.98-2.58s.33-1.9.98-2.58c.66-.68,1.49-1.02,2.49-1.02.69,0,1.29.17,1.81.52.51.34.9.82,1.16,1.43l-1.16.48c-.36-.85-.99-1.27-1.89-1.27-.58,0-1.08.23-1.5.7-.41.47-.62,1.05-.62,1.74s.21,1.27.62,1.74c.42.47.92.7,1.5.7.93,0,1.58-.42,1.96-1.27l1.13.48c-.25.61-.64,1.08-1.16,1.43-.53.34-1.14.52-1.84.52ZM97.31,154.29c.94,0,1.68.25,2.22.75.54.5.81,1.19.81,2.06v4.16h-1.21v-.94h-.06c-.52.77-1.22,1.16-2.09,1.16-.74,0-1.37-.22-1.87-.66-.5-.44-.75-.99-.75-1.65,0-.7.26-1.25.79-1.67.53-.41,1.23-.62,2.12-.62.75,0,1.37.14,1.86.41v-.29c0-.44-.17-.82-.52-1.12-.35-.31-.76-.46-1.23-.46-.71,0-1.27.3-1.68.9l-1.12-.7c.62-.88,1.53-1.32,2.73-1.32ZM95.67,159.2c0,.33.14.61.42.83s.61.33.99.33c.53,0,1.01-.2,1.43-.59.42-.4.63-.86.63-1.39-.4-.31-.95-.47-1.65-.47-.51,0-.94.12-1.29.37-.34.25-.52.56-.52.92ZM104.18,161.38c-.55,0-1.01-.17-1.37-.51-.36-.34-.55-.81-.56-1.42v-3.78h-1.19v-1.16h1.19v-2.07h1.27v2.07h1.65v1.16h-1.65v3.36c0,.45.09.76.26.92s.37.24.59.24c.1,0,.2-.01.3-.03s.19-.05.27-.09l.4,1.13c-.33.12-.72.18-1.16.18ZM107.79,152.18c0,.25-.09.46-.26.63s-.39.26-.63.26-.46-.09-.63-.26c-.17-.17-.26-.39-.26-.63s.09-.46.26-.63c.17-.17.39-.26.63-.26s.46.09.63.26.26.39.26.63ZM107.53,154.51v6.75h-1.27v-6.75h1.27ZM108.64,157.89c0-1.04.33-1.9.98-2.58.66-.68,1.49-1.02,2.49-1.02s1.83.34,2.48,1.02c.66.68.99,1.54.99,2.58s-.33,1.91-.99,2.58c-.65.68-1.48,1.02-2.48,1.02s-1.83-.34-2.49-1.02c-.65-.68-.98-1.54-.98-2.58ZM109.91,157.89c0,.73.21,1.31.63,1.76.42.45.95.68,1.57.68s1.15-.22,1.57-.68c.42-.45.63-1.04.63-1.76s-.21-1.3-.63-1.75c-.43-.46-.96-.69-1.57-.69s-1.14.23-1.57.69c-.42.45-.63,1.03-.63,1.75ZM116.67,154.51h1.21v.94h.06c.19-.33.49-.61.89-.83s.82-.33,1.25-.33c.83,0,1.46.24,1.91.71.45.47.67,1.15.67,2.02v4.25h-1.27v-4.16c-.03-1.1-.58-1.65-1.67-1.65-.51,0-.93.2-1.27.61-.34.41-.51.9-.51,1.47v3.74h-1.27v-6.75Z"/>
  </g>
</svg>