<?xml version="1.0" encoding="UTF-8"?>
<svg id="Layer_1" xmlns="http://www.w3.org/2000/svg" version="1.1" viewBox="0 0 20 20">
  <!-- Generator: Adobe Illustrator 29.8.3, SVG Export Plug-In . SVG Version: 2.1.1 Build 3)  -->
  <defs>
    <style>
      .st0 {
        fill: #144372;
      }
    </style>
  </defs>
  <path class="st0" d="M14.68,19.98c-.77,0-1.54-.17-2.24-.52C5.67,16.15,2.22,11.19.51,7.61-.11,6.32-.17,4.88.34,3.55.85,2.23,1.84,1.2,3.15.66l1.11-.47c1.02-.43,2.18-.01,2.7.97l1.46,2.76c.59,1.12.23,2.47-.83,3.16l-.54.35c-.37.24-.48.71-.25,1.08.69,1.14,2,2.84,4.31,4.44.35.24.83.16,1.09-.18l.59-.78c.74-.99,2.09-1.26,3.15-.64l3.01,1.75c.91.53,1.29,1.66.9,2.63l-.42,1.04c-.53,1.32-1.6,2.36-2.92,2.87-.59.23-1.21.34-1.83.34ZM5.09,1.45c-.09,0-.18.02-.27.05l-1.11.47c-.94.39-1.66,1.14-2.03,2.09-.37.96-.32,2,.12,2.93,1.61,3.38,4.87,8.06,11.27,11.19.93.45,1.97.5,2.94.13.97-.37,1.72-1.11,2.11-2.07l.42-1.04c.13-.32,0-.69-.3-.86l-3.01-1.75c-.44-.25-.99-.14-1.29.26l-.59.78c-.72.97-2.06,1.19-3.05.5-2.52-1.74-3.96-3.62-4.72-4.88-.62-1.04-.32-2.36.7-3.02l.54-.35c.43-.28.58-.84.34-1.29l-1.46-2.76c-.12-.24-.36-.37-.62-.37Z"/>
</svg>