<?xml version="1.0" encoding="UTF-8"?>
<svg id="Layer_1" xmlns="http://www.w3.org/2000/svg" version="1.1" viewBox="0 0 20 20">
  <!-- Generator: Adobe Illustrator 29.8.3, SVG Export Plug-In . SVG Version: 2.1.1 Build 3)  -->
  <defs>
    <style>
      .st0 {
        fill: #144372;
      }
    </style>
  </defs>
  <path class="st0" d="M19.59,7.76c-.11-.47-.25-.93-.43-1.38C17.71,2.74,14.16.16,10,.16S2.29,2.74.84,6.38c-.18.44-.32.9-.43,1.38-.17.72-.26,1.47-.26,2.24s.09,1.52.26,2.24c.11.47.25.93.43,1.38,1.44,3.64,5,6.22,9.15,6.22s7.71-2.58,9.15-6.22c.18-.44.32-.9.43-1.38.17-.72.26-1.47.26-2.24s-.09-1.52-.26-2.24ZM17.65,6.38h-3.62c-.32-1.82-.87-3.38-1.57-4.48,2.29.7,4.17,2.34,5.19,4.48ZM12.96,10c0,.76-.04,1.52-.12,2.24h-5.67c-.08-.73-.12-1.48-.12-2.24s.04-1.52.12-2.24h5.67c.08.73.12,1.48.12,2.24ZM10,1.54c.41,0,1.14.54,1.81,2.06.35.8.63,1.75.83,2.78h-5.26c.19-1.04.47-1.99.82-2.78.67-1.52,1.39-2.06,1.81-2.06ZM7.53,1.9c-.7,1.1-1.25,2.66-1.57,4.48h-3.62c1.01-2.13,2.89-3.78,5.18-4.48ZM1.54,10c0-.78.11-1.53.3-2.24h3.94c-.07.72-.11,1.47-.11,2.24s.04,1.52.11,2.24H1.84c-.2-.71-.3-1.47-.3-2.24ZM2.35,13.62h3.62c.32,1.82.87,3.38,1.57,4.48-2.29-.7-4.17-2.34-5.19-4.48ZM10,18.46c-.41,0-1.14-.54-1.81-2.06-.35-.8-.63-1.75-.82-2.78h5.26c-.19,1.04-.48,1.99-.83,2.78-.67,1.52-1.39,2.06-1.81,2.06ZM12.46,18.1c.7-1.1,1.25-2.66,1.57-4.48h3.62c-1.01,2.13-2.9,3.78-5.19,4.48ZM18.16,12.24h-3.94c.07-.72.11-1.47.11-2.24s-.04-1.52-.11-2.24h3.94c.2.71.3,1.47.3,2.24s-.11,1.53-.3,2.24Z"/>
</svg>