<?xml version="1.0" encoding="UTF-8"?>
<svg id="Layer_1" xmlns="http://www.w3.org/2000/svg" version="1.1" viewBox="0 0 20 20">
  <!-- Generator: Adobe Illustrator 29.8.3, SVG Export Plug-In . SVG Version: 2.1.1 Build 3)  -->
  <defs>
    <style>
      .st0 {
        fill: #144372;
        fill-rule: evenodd;
      }
    </style>
  </defs>
  <path class="st0" d="M14.67,11.92c-.24-.13-1.42-.77-1.64-.86-.22-.09-.38-.14-.56.1-.17.24-.66.77-.81.93-.15.16-.29.17-.53.04-.24-.13-1.02-.42-1.92-1.29-.7-.68-1.16-1.5-1.3-1.75-.13-.25,0-.38.13-.5.11-.11.26-.28.38-.42.13-.14.17-.24.26-.4.09-.16.05-.3,0-.43-.06-.12-.5-1.35-.69-1.84-.19-.5-.39-.42-.54-.43-.14,0-.31-.03-.47-.04-.16,0-.43.05-.66.28-.23.24-.89.8-.93,2.01-.05,1.2.79,2.4.9,2.57.12.17,1.59,2.78,4.04,3.85,2.45,1.07,2.46.75,2.91.72.45-.02,1.47-.54,1.7-1.1.23-.56.24-1.05.19-1.16-.06-.1-.22-.17-.46-.3h0ZM10.18,17.73c-1.62,0-3.13-.49-4.39-1.32l-3.07.98,1-2.96c-.96-1.32-1.52-2.93-1.52-4.68,0-4.4,3.58-7.98,7.98-7.98s7.98,3.58,7.98,7.98-3.58,7.98-7.98,7.98h0ZM10.18.16C4.88.16.59,4.45.59,9.75c0,1.81.5,3.5,1.38,4.95L.24,19.84l5.31-1.7c1.37.76,2.95,1.19,4.63,1.19,5.3,0,9.59-4.29,9.59-9.59S15.47.16,10.18.16h0Z"/>
</svg>